# xmcd
#
# Track frame offsets:
#	150
#	11865
#	25238
#	38939
#	51841
#
# Disc length: 845 seconds
#
# Revision: 2
# Processed by: cddbd v1.5.2PL0 Copyright (c) Steve Scherf et al.
# Submitted via: audiograbber 1.83.01
#
DISCID=3b034b05
DTITLE=Riedsee Diamanten - Wenn Ihr so weitermacht...
DYEAR=2004
DGENRE=Volksmusik
TTITLE0=Wenn Ihr so weitermacht...
TTITLE1=Morgens wenn die Hähne kräh'n
TTITLE2=Wir tanken alle Superdiesel
TTITLE3=Heut steht der Maibaum im Dorf...
TTITLE4=Wenn ihr so weitermacht..
EXTD=<http://www.hit-radio24.de> \n
EXTT0=
EXTT1=
EXTT2=
EXTT3=
EXTT4=
PLAYORDER=
